<?xml version="1.0" encoding="UTF-8"?>
<svg version="1.1" viewBox="0 0 2048 2048" width="8000" height="8000" xmlns="http://www.w3.org/2000/svg">
<path transform="translate(0)" d="m0 0h2048v2048h-2048z" fill="#E6B01F"/>
<path transform="translate(0,1408)" d="m0 0h2048v640h-2048z" fill="#1D1E20"/>
<path transform="translate(623,170)" d="m0 0h888v166h-265v276h252l1 1v164l-252 1-1 470h-359v-470h-252v-166h252v-276h-264z" fill="#F2CD61"/>
<path transform="translate(1067,170)" d="m0 0h444v166h-265v276h252l1 1v164l-252 1-1 470h-178l-1-1z" fill="#FDFDFD"/>
<path transform="translate(1413,1556)" d="m0 0h28l15 3 13 5 9 6 10 9 7 10 6 12 6 20 4 23 2 27 1 41v31l-1 43-2 24-4 24-6 20-7 14-7 9-9 9-14 8-16 5-7 1h-31l-16-4-12-6-10-8-9-10-7-12-7-19-5-23-3-25-1-16-1-36v-29l1-32 3-35 4-22 5-17 8-16 6-9 7-8 10-7 12-6 11-3z" fill="#FDFDFD"/>
<path transform="translate(1551,1556)" d="m0 0h109l14 3 12 5 10 7 7 7 8 13 6 18 3 17 1 25-2 23-4 17-8 16-7 9-10 8-11 5-5 2 16 5 9 5 7 6 6 10 5 15 3 22 4 81 2 25h-56l-5-16-1-7-1-80-3-17-5-10-7-6-11-4-6-1-22-1v142h-58z" fill="#FDFDFD"/>
<path transform="translate(336,1556)" d="m0 0h51l1 250 3 22 4 12 6 10 8 5 3 1h11l8-3 8-7 6-12 3-12 2-17 1-249h49v255l-3 25-6 23-8 17-10 13-10 8-14 7-15 4-9 1h-15l-14-2-12-4-11-6-10-9-6-7-8-14-7-21-4-22-1-9-1-20z" fill="#FDFDFD"/>
<path transform="translate(603,1556)" d="m0 0h28l16 4 12 6 10 9 7 9 5 11 5 19 2 19v25h-50l-1-19-3-16-5-10-5-4-5-2h-11l-8 4-6 9-3 9-1 6v16l3 12 5 9 8 9 8 7 12 11 8 7 30 27 10 12 9 15 5 15 3 21v28l-2 17-4 17-7 16-8 11-8 8-13 8-14 5-11 2-19 1-18-2-12-4-11-6-10-9-7-9-6-12-5-17-2-14v-39h51l2 28 3 14 5 10 5 4 9 3h8l9-3 5-5 5-8 2-8 1-17-2-13-4-10-7-9-12-11-11-9-10-9-11-9-7-7-8-7-9-11-8-11-6-13-5-19-2-18v-24l2-16 4-15 8-16 7-9 8-8 11-7 12-5z" fill="#FDFDFD"/>
<path transform="translate(1056,1556)" d="m0 0h28l16 4 12 6 10 9 7 9 5 11 4 14 2 14 1 17v15l-1 1h-49l-2-25-3-11-4-8-5-4-4-2h-13l-7 4-5 6-4 10-1 5v20l3 10 6 10 10 10 11 9 14 13 11 9 16 15 10 10 10 15 5 12 4 20 1 12v16l-2 21-4 17-7 16-8 11-8 8-13 8-15 5-11 2h-30l-16-4-14-7-12-11-8-13-6-16-3-17-1-13v-27l1-1h51l1 21 3 19 6 12 8 5 5 1h9l9-3 5-5 4-6 3-11v-21l-3-11-5-9-8-9-11-9-26-22-11-9-12-12-10-13-6-10-6-18-3-20v-31l3-18 5-14 7-13 11-12 11-8 12-5 11-3z" fill="#FDFDFD"/>
<path transform="translate(1753,1556)" d="m0 0h139v52l-1 1h-85v85h79v53h-79v99h88v54h-141z" fill="#FDFDFD"/>
<path transform="translate(724,1556)" d="m0 0h138v53h-85v85h79v52l-1 1h-78v99h87l1 1v53h-141z" fill="#FDFDFD"/>
<path transform="translate(159,1556)" d="m0 0h139v53h-83v88h79v53l-78 1-1 149h-56z" fill="#FDFDFD"/>
<path transform="translate(1159,1556)" d="m0 0h161v56h-55v288h-51v-288h-54l-1-1z" fill="#FDFDFD"/>
<path transform="translate(1421,1613)" d="m0 0h11l8 5 6 12 3 13 2 19v125l-2 23-4 18-4 8-5 5-4 2h-12l-6-4-4-6-5-16-2-14-1-14-1-40v-51l1-32 2-21 4-18 5-8 6-5z" fill="#1D1E20"/>
<path transform="translate(1609,1609)" d="m0 0h23l13 3 8 5 4 5 4 10 2 13v21l-3 17-6 12-9 6-10 3-9 1h-17z" fill="#1D1E20"/>
</svg>
