<?xml version="1.0" encoding="UTF-8"?>
<svg version="1.1" viewBox="0 0 2048 1137" width="900" height="500" xmlns="http://www.w3.org/2000/svg">
<path transform="translate(0)" d="m0 0h2048v1137h-2048z" fill="#fff"/>
<path transform="translate(1983,628)" d="m0 0h28v167l-1 1-352-14-349-14-672-27-447-18-151-6-3-2v-7l1-2 38-2 199-8 452-18 401-16 629-25z" fill="#D16214"/>
<path transform="translate(1190,346)" d="m0 0h190l14 2 12 4 10 6 8 9 5 10 4 13 2 13 1 17v11l-2 23-4 15-5 10-6 7-10 6-8 4-4 1 16 6 10 7 6 9 3 10 1 7v56h-60l-1-31-1-15-4-10-8-5-5-1-106-1v63h-59v-245z" fill="#271A15"/>
<path transform="translate(170,339)" d="m0 0h32l33 1 22 2 16 4 14 7 9 9 7 12 4 13 2 11 1 12v19h-59l-3-15-3-6-10-5-5-1-34-1h-55l-10 2-8 5-6 8-3 12-1 8v60l2 15 5 12 5 6 7 4 11 3 32 1h47l12-2 8-4 5-6 3-11 1-14h-77v-48l1-1h135l1 1v75l-2 18-4 16-8 16-8 9-15 8-14 3-35 1-88-1-26-2-17-4-12-6-10-8-8-10-7-15-5-21-2-18-1-36v-15l1-33 2-22 4-20 6-15 6-9 9-9 15-8 16-4 22-2z" fill="#261A15"/>
<path transform="translate(613,346)" d="m0 0h94l14 22 11 17 15 24 42 66 24 38 9 14 1-177 1-4h54l1 1v244l-1 1h-94l-10-16-48-76-14-22-36-57-7-11-2 182h-55v-245z" fill="#271A15"/>
<path transform="translate(1566,346)" d="m0 0h80l5 11 48 112 13 30 20 46 17 40 2 7h-65l-8-18-10-25h-125l-6 12-10 24-3 6-1 1h-65l3-9 15-34 54-123 19-43 11-25z" fill="#261A15"/>
<path transform="translate(930,346)" d="m0 0h216v56h-157v42h146l1 7v41l-1 1h-146v43h157v56h-216l-1-18v-176z" fill="#271A15"/>
<path transform="translate(353,346)" d="m0 0h215l1 1v55l-157 1-1 41h147v49h-147l1 43h156l1 1v55h-217v-245z" fill="#281A15"/>
<path transform="translate(1856,344)" d="m0 0h68l37 3 16 4 9 6 8 8 8 16 4 16 2 17v19h-57l-3-15-4-6-3-3-12-3-43-1-35 1-12 3-6 4-3 1-2 5-3 9-2 16v50l2 14 4 12 5 5 6 4 13 3 11 1 31 1 32-1 11-2 6-4 4-6 3-14 1-8 1-1h56l2 4-1 31-3 20-5 15-6 8-9 8-15 6-19 3-9 1-26 1h-53l-30-1-18-2-15-4-11-6-10-9-7-11-5-13-4-18-2-21-1-21v-47l2-26 5-24 5-12 6-10 4-5 10-8 12-6 15-4 19-2z" fill="#271A15"/>
<path transform="translate(1249,406)" d="m0 0h108l10 3 5 5 3 8 1 7-1 25-3 7-5 5-12 3h-106z" fill="#fff"/>
<path transform="translate(1604,401)" d="m0 0h2l11 26 23 54 6 14v1h-82l1-5 13-30 23-54z" fill="#fff"/>
</svg>
