<?xml version="1.0" encoding="UTF-8"?>
<svg version="1.1" viewBox="0 0 2048 1137" width="900" height="500" xmlns="http://www.w3.org/2000/svg">
<path transform="translate(1992,628)" d="m0 0h18l1 1v166h-19l-748-30-68-3-106-4-275-11-174-7-68-3-106-4-396-16-14-1v-10l120-5 1560-62z" fill="#D16415"/>
<path transform="translate(149,340)" d="m0 0h75l28 2 16 3 12 5 9 6 9 10 5 10 4 14 2 13 1 25h-59l-2-13-4-8-8-4-10-2h-92l-10 4-5 5-5 10-2 11-1 16v43l2 20 5 13 6 7 8 4 7 2 10 1h77l10-2 8-6 4-8 2-15 1-7h-77l-1-1v-45l1-1h135l1 14v50l-2 25-4 17-6 15-7 9-7 6-11 5-6 2-18 2h-78l-43-1-20-2-16-4-10-5-9-7-8-9-7-14-4-13-3-17-1-8-1-19v-59l2-28 5-25 5-13 8-12 8-7 16-8 18-4 12-1z" fill="#271B17"/>
<path transform="translate(825,346)" d="m0 0 53 1 1 1v222l-1 21-11 1h-81l-3-3-108-171-5-8-3-1 1 4-1 178-12 1h-42v-245h94l15 24 11 17 12 19 10 16 12 19 15 23 16 26 15 23 9 14 1 1 1-182z" fill="#271B18"/>
<path transform="translate(1190,347)" d="m0 0h195l14 3 11 5 6 4 7 8 6 12 4 15 2 18v28l-3 20-4 12-6 10-10 8-11 5-5 1v2l15 5 11 7 6 9 3 9 1 5v58l-1 1h-57l-1-1-1-44-4-11-7-5-3-1-16-1-94-1v63l-2 1h-55l-2-5v-239zm58 58v65h107l10-2 7-4 3-5 1-5 1-22-1-12-5-10-8-4-6-1z" fill="#271B17"/>
<path transform="translate(930,347)" d="m0 0h216v54l-157 1v43h146v47l-146 1v44h156l1 1v53l-2 1h-214l-1-54v-135z" fill="#271C18"/>
<path transform="translate(354,346)" d="m0 0 214 1v54l-4 1h-153v43h147v47h-147v45h157v54l-1 1h-213l-1-1v-244z" fill="#261A17"/>
<path transform="translate(1891,344)" d="m0 0 40 1 32 3 14 4 9 6 7 7 7 12 4 12 3 22 1 21h-57l-2-14-5-8-6-3-9-2h-75l-12 2-8 4-5 5-4 9-2 10-1 27v17l1 22 4 16 4 7 7 5 10 3 17 2h61l14-3 5-2 2-5 3-7 3-18h56l1 1v22l-2 22-4 16-4 10-5 7-10 7-13 5-16 3-27 2h-78l-30-2-17-4-12-6-11-10-8-14-5-16-3-16-2-29v-61l2-23 4-19 5-13 6-10 7-8 10-7 11-5 18-4 25-2z" fill="#261A17"/>
<path transform="translate(1567,346)" d="m0 0 79 1 11 26 16 37 42 98 15 34 17 40 3 9-1 1h-62l-5-10-13-32v-3l-127 1-18 42-4 2h-60l-1-3 19-43 14-32 11-25 18-41 19-43 18-41 7-16zm36 54-7 15-13 31-12 28-8 20v3h84l-3-10-12-28-13-30-10-24-3-5z" fill="#271B18"/>
</svg>
