<?xml version="1.0" encoding="UTF-8"?>
<svg version="1.1" viewBox="0 0 2048 677" width="414" height="137" xmlns="http://www.w3.org/2000/svg">
<path transform="translate(1517,242)" d="m0 0h4l1 202-7 2h-118l-11-2-12-5-10-8-6-7-8-16-2-8v-50l5-14 7-11 7-7 13-8 9-3 5-1 102-1v-50l9-7zm-119 88-10 3-9 8-5 9-2 14v28l2 10 4 7 4 5 7 5 12 3h94l1-1v-91z" fill="#001145"/>
<path transform="translate(731,306)" d="m0 0h162l12 3 11 6 10 9 7 10 5 13 1 10v88l-2 1h-22l-1-2-1-91-6-12-7-6-11-4h-41l-1 114-7 1h-16l-1-1-1-15v-100h-66v115l-10 1h-14l-1-1z" fill="#001247"/>
<path transform="translate(348,306)" d="m0 0h95l10 3 11 7 8 10 4 9 1 6v104l-2 1h-135l-9-2-9-5-6-5-6-9-5-12-1-11 3-11 4-8 9-10 11-7 7-2 112-1 1-1v-18l-3-8-5-4-4-1-102-1 1-6 6-11zm-4 82-7 2-6 7-2 6 1 7 5 8 6 3 4 1h106l1-1v-32l-1-1z" fill="#001146"/>
<path transform="translate(501,306)" d="m0 0h161l12 3 11 6 10 9 7 10 4 9 2 10v92l-2 1h-21l-2-2-1-92-5-10-8-7-6-3-5-1-41-1v114l-1 1-9 1h-14l-1-1v-115h-67v115l-11 1h-12l-2-2v-137z" fill="#001246"/>
<path transform="translate(1039,305)" d="m0 0h14l33 1 12 3 12 6 11 10 7 11 4 12 1 7v40l-3 16-5 10-9 10-8 7-10 5-9 2-11 1h-66l-12-2-10-4-13-10-6-8-6-12-3-11v-47l4-13 6-11 8-9 14-9 9-3 6-1zm-26 25-10 3-8 6-6 9-2 7v42l4 11 9 9 9 4 8 1h59l13-2 9-5 6-7 3-6 1-5v-43l-4-10-7-8-10-5-5-1z" fill="#001246"/>
<path transform="translate(131,242)" d="m0 0h5l1 63 101 1 13 3 11 6 10 9 7 10 5 12 1 6v93l-2 1h-21l-2-2-1-91-3-8-7-8-10-5-4-1-99-1v115l-1 1h-22l-1-1-1-133v-57l8-6z" fill="#001146"/>
<path transform="translate(1156,306)" d="m0 0h125l12 3 11 6 12 11 7 12 3 9 1 6v92l-4 1h-20l-1-4-1-89-3-7-4-6-6-5-6-3-5-1-95-1v114l-1 1-9 1h-14l-2-5z" fill="#001146"/>
<path transform="translate(2e3 74)" d="m0 0 2 1-13 25-10 18-7 14-10 18-16 31-10 19-18 34-12 22-17 32-10 18-14 26-12 21-16 26-15 24-13 21-16 26-12 19-16 26-12 19-21 33-12 19-15 25-17 28-11 18-15 23-2 1 2-5 15-28 12-22 15-28 16-29 17-32 14-26 30-56 16-30 12-22 9-16 6-12 14-24 13-21 24-38 14-22 30-48 28-44 25-40 14-23 10-15z" fill="#00C3FA"/>
<path transform="translate(1962,113)" d="m0 0 1 2-11 18-10 15-15 22-13 19-11 16-13 19-28 42-10 16-7 10-36 54-9 13-38 57-23 34-7 9-5 4-5-1-8-6-2-3 1-5 9-13 15-20 14-19 16-21 14-19 16-21 13-18 10-13 14-19 21-28 16-21 42-57 9-12 16-21 12-17 8-11z" fill="#00A7E2"/>
<path transform="translate(1928,146)" d="m0 0 1 2-7 9-13 16-9 10-7 8-11 13-9 11-12 14-11 14-13 15-11 13-11 14-11 13-8 10-12 14-22 26-9 11-11 13-9 11-12 14-8 10-11 13-7 8-7 4-6-4-5-6 1-4 7-9 11-12 24-26 14-15 15-16 9-10 22-24 7-7 7-8 16-17 12-13 9-9 7-8 13-14 7-8 13-14 7-8 12-13 10-10 7-8 9-10z" fill="#007CAA"/>
<path transform="translate(1895,172)" d="m0 0 2 1-7 7-8 7-18 18-8 7-32 32-8 7-39 39-8 7-21 21-8 7-22 22h-2l-1 3-8 7-25 25-8 7-10 9-3 2-6-1-5-6-1-4 9-10 10-9 11-9 12-11 8-7 11-10 11-9 12-11 8-7 14-12 10-9 11-9 11-10 10-8 20-18 12-11 8-7 15-13 11-9 9-9 11-9 9-8z" fill="#005583"/>
<path transform="translate(1868,360)" d="m0 0 8 1 6 5-1 5-7 11-14 19-13 18-12 16-13 18-10 13-14 19-12 16-13 18-16 21-12 17-39 54-12 16-2 1 2-6 42-63 27-41 10-15 29-44 19-29 29-44 12-18z" fill="#00C2F9"/>
<path transform="translate(1864,191)" d="m0 0 2 1-8 7-12 9-28 22-18 14-17 13-15 12-14 11-16 13-13 10-14 11-10 8-18 14-28 22-14 10-7 3-5-6-1-6 10-9 12-8 18-13 17-12 18-13 19-13 11-8 15-10 17-12 14-10 19-14 23-16 19-14 20-14z" fill="#005785"/>
<path transform="translate(1900,382)" d="m0 0 8 6 1 5-12 14-9 10-33 36-13 14-7 8-14 15-7 8-24 26-7 8-15 16-7 8-12 13-12 14-9 11-9 9v-3l11-13 8-11 9-11 11-13 8-10 11-13 9-11 10-12 8-10 11-13 10-13 13-15 10-13 12-14 13-16 8-10 13-15z" fill="#00A8E2"/>
<path transform="translate(1832,206)" d="m0 0 3 1-15 10-48 30-28 17-20 13-22 14-38 24-24 15-19 11-5 1-4-5-1-6 9-6 24-13 24-14 22-12 23-13 24-13 24-14 27-15 23-13 17-10z" fill="#00406C"/>
<path transform="translate(1921,406)" d="m0 0 5 1 4 5-1 5-15 15-8 7-11 10-11 9-11 10-8 7-12 11-8 7-10 9-11 9-7 7-8 7-14 12-31 29-12 11-5 4-2-1 7-8 52-52 7-6 71-71 8-7 26-26z" fill="#007FAE"/>
<path transform="translate(1962,113)" d="m0 0 1 2-11 18-10 15-15 22-13 19-11 16-13 19-28 42-10 16-7 10-8 12-4 1-5 8-6 5-1 2h-2l-1 3-5 3-5 6-4 1 7-14 5-6 1-5 14-19 24-32 16-21 42-57 9-12 16-21 12-17 8-11z" fill="#00C2F9"/>
<path transform="translate(1962,471)" d="m0 0 4 1 2 2v5l-6 4-35 15-54 24-23 10-2 1 7-1 33-12 40-15 39-15h6l1 1v6l-16 6-103 34-17 4-6 2h-9l3-3 19-10 14-8 25-12 28-14 19-10 26-13z" fill="#004773"/>
<path transform="translate(1805,216)" d="m0 0 3 1-44 22-28 13-22 11-23 11-23 12-49 24-11 5h-6l-3-5 1-5 14-7 64-28 36-15 30-13 21-9 28-13z" fill="#00426D"/>
<path transform="translate(1939,430)" d="m0 0 5 1 2 6-6 7-15 11-17 12-36 26-17 12-18 13-17 12-13 10-11 9-12 9-11 8h-3l13-13 11-9 13-11 20-15 17-14 14-11 11-9 15-12 14-11 11-9 16-13z" fill="#007DAB"/>
<path transform="translate(343,495)" d="m0 0 4 2 8 18 3 4 8-18 5-5 2-1h6l-3 10-14 30-4 4-5-4-8-19-1-1-7 15-4 8-3 1-6-8-12-26-3-9h8l5 4 8 19 3-3 9-20z" fill="#00C3FA"/>
<path transform="translate(1779,222)" d="m0 0 2 1-8 4-49 18-61 22-60 22-9 2-2-3v-6l9-4 52-17 62-19 50-16z" fill="#00184C"/>
<path transform="translate(1953,451)" d="m0 0 4 1 2 4v4l-15 9-23 13-25 14-24 14-28 16-18 11-13 9-14 6-3-1 10-6 11-8 14-9 22-14 19-12 26-17 11-7 20-13 18-11z" fill="#005786"/>
<path transform="translate(1381,495)" d="m0 0 6 2 8 7 16 16 2 1-1-19v-5l1-1h7l2 1v40l-1 1-7-1-23-23-1 22-2 2h-6l-2-1v-41z" fill="#00C2F9"/>
<path transform="translate(536,496)" d="m0 0h16l11 1 6 3 3 6v9l-4 7-2 2 1 4 5 6v4h-8l-3-1-6-9-3-2h-6l-1 11-1 1h-6l-3-2v-39zm9 8v12l1 1h13l3-2v-8l-2-2-4-1z" fill="#00C3FA"/>
<path transform="translate(1496,496)" d="m0 0h15l7 4 3 5 1 6-7-1-8-5h-10l-2 1v5l19 2 9 6v8l-4 7-8 4h-16l-7-4-4-7 1-5 6 2 6 4 9 2 6-3 1-5-16-1-7-2-6-5v-7l4-6 5-4z" fill="#00C3FA"/>
<path transform="translate(1288,496)" d="m0 0h14l8 4 6 7 2 5v10l-4 8-7 6-6 2h-14l-6-3-7-8-2-5v-10l4-8 7-6zm3 8-6 4-3 3-1 8 3 6 5 4 2 1h8l6-4 3-5v-8l-4-6-5-3z" fill="#00C3FA"/>
<path transform="translate(817,496)" d="m0 0h14l8 4 6 7 2 6v8l-3 7-4 5-10 5h-14l-8-4-6-8-2-10 3-9 7-8zm4 8-8 4-3 5v7l4 7 6 3h8l6-4 3-5v-8l-5-7-4-2z" fill="#00C3FA"/>
<path transform="translate(223,496)" d="m0 0h14l9 4 6 8 2 6-1 10-4 6-7 6-5 2h-15l-9-6-5-8-1-10 4-9 9-8zm4 8-7 4-3 4v8l4 7 6 3h8l8-7 1-8-4-8-5-3z" fill="#00C3FA"/>
<path transform="translate(720,495)" d="m0 0 11 2 5 3 3 5 1 6-7-1-8-5-7-1-5 2v5l18 2 8 4 2 2v9l-4 6-8 4h-15l-6-3-5-6-1-6 3-1 10 6 8 2 7-3 1-4-21-3-7-5-1-2v-6l4-6 5-4z" fill="#00C3FA"/>
<path transform="translate(439,496)" d="m0 0h32l3 2-1 6h-25v9h23l1 1v6h-24v9h25v8l-2 1h-32l-1-8v-32z" fill="#00C3FA"/>
<path transform="translate(1675,324)" d="m0 0h3l1 3h9l7-2-4 5-13 10-18 14-17 13-8 4-5-4-2-4 1-5 9-8 12-8 18-13z" fill="#00406B"/>
<path transform="translate(998,496)" d="m0 0h7l3 3v22l2 5 5 3h8l5-4 1-4v-22l1-2 7-1 3 2v25l-4 8-6 5-5 2h-14l-6-3-6-7-2-6v-25z" fill="#00C3FA"/>
<path transform="translate(1895,172)" d="m0 0 2 1-7 7-8 7-18 18-8 7-32 32-8 7-29 29-1-2-6 1-5 5h-2v2l-6 2 6-7v-3l11-9 14-12 8-7 12-11 20-18 14-12 11-9 9-9 11-9 9-8z" fill="#0081B1"/>
<path transform="translate(115,496)" d="m0 0h11l11 1 6 3 4 6v11l-3 5-5 4-13 2h-5v7l-1 2-6 1-2-1-1-12v-27zm7 8-1 1v14l2 1h7l5-2 3-4-1-7-5-3z" fill="#00C3FA"/>
<path transform="translate(1962,471)" d="m0 0 4 1 2 2v5l-6 4-35 15-27 12-10 4-2-6 24-12 19-10 26-13z" fill="#005685"/>
<path transform="translate(1099,497)" d="m0 0h41l1 1v5l-1 1-15 1v32l-1 1h-7l-2-2v-31l-15-1-2-2z" fill="#00C3FA"/>
<path transform="translate(1921,406)" d="m0 0 5 1 4 5-1 5-15 15-8 7-2 1v-2l-13 7-5 3-4-2 4-6 30-30z" fill="#00A7E1"/>
<path transform="translate(1779,222)" d="m0 0 2 1-8 4-49 18-61 22-6 2 3-10 42-13 63-20z" fill="#004571"/>
<path transform="translate(909,496)" d="m0 0 9 1 1 1v31h19l2 1v6l-1 1-9 1h-21l-1-2v-39z" fill="#00C3FA"/>
<path transform="translate(1953,451)" d="m0 0 4 1 2 4v4l-15 9-23 13-9 5h-2l-2-8 10-7 19-12 14-8z" fill="#007DAB"/>
<path transform="translate(1832,206)" d="m0 0 3 1-15 10-48 30-28 17-10 6-1-5-3-1 24-14 27-15 23-13 24-14z" fill="#005B8A"/>
<path transform="translate(1864,488)" d="m0 0h3l-2 5-9 8-11 7v3l-5 5-20 14-13 10-11 9-12 9-11 8h-3l13-13 11-9 13-11 20-15 17-14 14-11z" fill="#005987"/>
<path transform="translate(1928,146)" d="m0 0 1 2-7 9-13 16-9 10-7 8-11 13-9 11-10 12v-3l1-3-5 3-7 6 2-4 10-10 9-11 8-8 7-8 12-12 7-8 9-10z" fill="#00A4DD"/>
<path transform="translate(1201,496)" d="m0 0 9 1 1 1-1 39-1 1h-8l-1-1v-40z" fill="#00C3FA"/>
<path transform="translate(1967,490)" d="m0 0h6l1 1v6l-16 6-37 12-1-2v-5z" fill="#005786"/>
<path transform="translate(1917,509)" d="m0 0 4 1-1 5-43 15-17 5-1-4 12-5 17-6z" fill="#004570"/>
<path transform="translate(1962,113)" d="m0 0 1 2-11 18-10 15-15 22-6 9h-3l-1-6 12-15 14-19 10-14 8-11z" fill="#00C2F9"/>
<path transform="translate(1805,216)" d="m0 0 3 1-44 22-24 11h-2l1-4-2-1 26-11 30-14z" fill="#005988"/>
<path transform="translate(1621,295)" d="m0 0 4 1-5 5v3l3 2v2l-15 7h-6l-3-5 1-5 14-7z" fill="#00174B"/>
<path transform="translate(1764,544)" d="m0 0 4 1-6 8-6 9-8 8-9 11-13 15-7 7v-3l11-13 8-11 9-11 11-13z" fill="#0085B4"/>
<path transform="translate(1728,572)" d="m0 0h2l-2 6h-2l-1 7-12 16-12 17-8 10-1-2 7-12 17-25 11-16z" fill="#00ADE7"/>
<path transform="translate(1928,146)" d="m0 0 1 2-7 9-13 16-9 10-7 8-1-3-7 7-2-1 17-17 7-8 9-10z" fill="#00ABE6"/>
<path transform="translate(1787,539)" d="m0 0h3l-2 4-13 13-8 7-15 14-5 4-2-1 7-8 26-26 4-2z" fill="#005B8A"/>
<path transform="translate(1864,191)" d="m0 0 2 1-8 7-12 9-14 11-4 1-4-1 20-15 16-11z" fill="#0080B1"/>
<path transform="translate(1832,529)" d="m0 0h3l-1 3-11 7-10 7-14 6-3-1 10-6 11-8 9-6z" fill="#004975"/>
<path transform="translate(1962,471)" d="m0 0 4 1 2 2v5l-6 4-6 2-3-9 4-3z" fill="#007CAA"/>
<path transform="translate(1871,209)" d="m0 0 5 2-6 8-7 8v-3l1-3-5 3-7 6 2-4 10-10 4-5z" fill="#00A6DF"/>
<path transform="translate(1747,565)" d="m0 0 2 2-5 3 2-4zm-4 5 1 4-6 8-12 14-7 7v-3l11-13 8-11z" fill="#0098CE"/>
<path transform="translate(1836,535)" d="m0 0h12v1l-5 1-2 3-9 3h-9l3-3z" fill="#004672"/>
<path transform="translate(1857,531)" d="m0 0 5 1-2 1-1 3-13 3h-4l1-3-5-1 3-3 11 1z" fill="#005886"/>
<path transform="translate(1900,382)" d="m0 0 8 6-2 1-2 4h-6l-1-5 1-5z" fill="#00C2F9"/>
<path transform="translate(1874,525)" d="m0 0 2 1-5 6-11 3-1-4 12-5z" fill="#00507C"/>
<path transform="translate(1928,146)" d="m0 0 1 2-7 9-5 5-8 6 2-4 9-9 7-8z" fill="#00B5ED"/>
<path transform="translate(1733,583)" d="m0 0 3 1-6 8-11 11v-3l11-13z" fill="#00A9E1"/>
<path transform="translate(1779,222)" d="m0 0 2 1-8 4-10 3-1-3z" fill="#005F8E"/>
<path transform="translate(1755,569)" d="m0 0 2 1-3 5-7 6-2-1 7-8z" fill="#0082B4"/>
<path transform="translate(1895,172)" d="m0 0 2 1-7 7-8 6 2-5z" fill="#0094C7"/>
<path transform="translate(1925,166)" d="m0 0 1 3-3 4-2 6h-3v-5z" fill="#00A7E2"/>
<path transform="translate(1816,310)" d="m0 0 1 3-7 9-3 1 2-5z" fill="#00ABE5"/>
<path transform="translate(1864,191)" d="m0 0 2 1-8 7-4 2 2-5z" fill="#0081B3"/>
<path transform="translate(1892,187)" d="m0 0 1 2-2 4-6 4h-2v-2l8-7z" fill="#007AA8"/>
<path transform="translate(1699,617)" d="m0 0 1 2-7 9-1-2 4-7z" fill="#00B0E9"/>
<path transform="translate(1863,529)" d="m0 0 4 1-1 3-6 2-1-4z" fill="#004773"/>
<path transform="translate(1691,628)" d="m0 0" fill="#00C3FA"/>
<path transform="translate(1744,581)" d="m0 0" fill="#00A6E1"/>
<path transform="translate(1835,205)" d="m0 0" fill="#00A6E1"/>
</svg>
