<?xml version="1.0" encoding="UTF-8"?>
<svg version="1.1" viewBox="0 0 2048 661" width="2091" height="675" xmlns="http://www.w3.org/2000/svg">
<path transform="translate(32,2)" d="m0 0h217l-1 4-10 18-15 25-13 23-10 17-14 24-10 17-14 24-15 26-14 24 2 1 13-10 16-13 16-12 11-9h6l7 6-4 23-18 69-1 2h3l2-5 12-19 13-21 14-23 12-19 13-21 15-24 17-28 12-19 13-21 7-1 5 3 2 3v9l-12 37-32 96-9 29v4l10-6 14-12 11-7 10-3 7-1 15-27 14-24 14-26 12-21 14-25 14-24 9-17 13-23 13-22h1v212l-119 1-2 5-4 7v2l125 1v86h-179l1-5 9-16 24-38 8-14-8 4-11 9-14 10-21 16-1 1h-6l-6-5-1-5 16-50 10-32 5-19h-2l-2 5-12 20-15 24-34 56-14 23-13 21-12 20-5 7-4 2h-6l-6-7v-9l8-29 14-50 12-53-9 5-10 9-11 9-12 6-3 1h-11l-2 5-17 28-15 26-15 25-15 26-5 9v14l3 8 8 5 12 4 8 1 358 1 1 1v43h-406l-12-3-7-4-5-5-5-8-3-11-1-1v-165l1-1 115-1 2-6 5-9h-122l-1-1v-170l1-1 2-12 4-10 6-9 9-7z" fill="#0D7E41"/>
<path transform="translate(1392,171)" d="m0 0h28l4 1 1 154 2 4 2 1h14l5-2 1-156 5-2h48l3 1v211h-55l-1-1v-19h-2l-2 5-7 8-14 7-14 3-12-1-11-4-9-7-7-11-3-10v-181z" fill="#0C7D40"/>
<path transform="translate(1095,163)" d="m0 0h15l16 3 12 5 10 6 4 3v2h2v2h2l7 10 5 10 2 10v68l-76 1 2 49 4 8 2 1h8l4-6 1-3 1-34h54v37l-3 11-5 10-9 10-10 7-11 5-15 4-12 1-16-1-15-4-16-8-10-9-7-10-5-12-1-5v-120l4-13 7-12 12-12 10-6 12-5zm5 38-5 4-2 5v35h23v-34l-5-8-2-2z" fill="#0C7D40"/>
<path transform="translate(1737,163)" d="m0 0h16l16 3 16 8 9 7 7 7 7 12 3 9 1 5v68l-76 1 2 48 3 8 3 2h8l3-4 2-6 1-33h54v37l-4 13-6 10-5 6-9 7-14 7-15 4h-28l-16-4-15-8-10-9-7-10-5-13-1-4v-119l4-14 7-12 8-9 11-8 14-6zm5 38-5 4-2 4v36h23v-33l-4-8-4-3z" fill="#0C7D40"/>
<path transform="translate(582,99)" d="m0 0h61l1 230 4 1 67 1 1 2v47l-1 3h-133z" fill="#0C7D40"/>
<path transform="translate(1592,165)" d="m0 0 18 2 13 4 10 5 9 7 8 10 4 10 2 9 1 10v11l-10 2h-39l-4-23-4-5-3-1h-9l-6 2-1 4v8l5 10 13 12 28 22v2l4 2 10 10 11 15 6 13 3 12v15l-4 15-7 13-6 7-10 7-13 5-18 3h-12l-18-2-14-4-10-4-11-10-8-14-4-15-1-9v-13l3-5h46l2 4 2 20 3 8 3 3 6 2 8-1 5-4 2-4-1-10-4-10-6-8-9-9-19-14-11-9-7-7v-2l-4-2-9-12-7-15-2-10v-15l3-11 5-9 9-10 12-8 16-6 9-2z" fill="#0C7D40"/>
<path transform="translate(1324,104)" d="m0 0h32l1 1v36l-1 1-13 1-5 5-3 9-1 14h17l3 1v37h-20v174h-56v-174h-13v-37l3-1h10v-34l3-14 4-6 5-5 7-4 14-3z" fill="#0C7D40"/>
<path transform="translate(940,113)" d="m0 0h56v58l21 1v37h-21l1 127 3 7 2 1 16 1v38h-34l-13-1-13-4-9-7-6-12-2-8-1-12v-130h-17v-37l17-1z" fill="#0C7D40"/>
<path transform="translate(825,113)" d="m0 0h55l1 57 5 1h13l2 1v37l-20 1v120l2 11 3 3 16 1v38h-35l-16-2-10-4-8-7-3-4-4-13-1-8-1-135-17-1v-37l18-1z" fill="#0C7D40"/>
<path transform="translate(1189,104)" d="m0 0h56v279h-56z" fill="#0C7D40"/>
<path transform="translate(730,170)" d="m0 0h60l1 1v211l-1 1h-60l-1-3v-207z" fill="#138146"/>
<path transform="translate(730,102)" d="m0 0h61v56l-1 1h-60l-1-3v-52z" fill="#138045"/>
<path transform="translate(1566,539)" d="m0 0h27l12 3 8 6 6 7 4 8 2 8v22l-3 10-6 10-8 7-9 4-7 1h-25l-1-1zm12 9v67h18l8-4 5-6 3-10 1-7v-10l-2-13-5-10-6-5-6-2z" fill="#6E6F73"/>
<path transform="translate(1285,562)" d="m0 0h6l9 37 1 9h3l2-12 9-33h12l10 38 1 9h3l3-18 6-27 1-2h11l-4 16-13 46h-11l-12-44v-4h-2l-4 18-8 30h-10l-2-2-10-38-5-18v-4z" fill="#717276"/>
<path transform="translate(558,539)" d="m0 0h14l26 78 2 8h-12l-4-9-5-15-30-1-3 11-4 13-1 1h-10l-1-2 18-55 9-27zm6 11-3 8-9 31v2h25l-2-10-9-30z" fill="#727276"/>
<path transform="translate(1110,539)" d="m0 0h14l10 31 16 50 1 5h-12l-8-24-31-1-3 12-4 12-1 1h-10l2-9 13-40 12-36zm5 11-11 37v4h24l-2-10-9-31z" fill="#6F7074"/>
<path transform="translate(915,534)" d="m0 0 10 1 1 1 1 89h-9l-2-6-7 5-7 2-9-1-8-4-7-8-3-10v-18l4-11 7-8 8-4h11l10 6zm-18 36-5 3-4 7-1 4v21l4 8 4 3 9 1 7-3 4-4v-34l-6-5-4-1z" fill="#707175"/>
<path transform="translate(618,561)" d="m0 0h2l1 2v6l5-3 7-4 2-1h8l9 4 6 7 3 8 1 5v16l-3 11-6 9-7 4-4 1h-7l-13-5v27l-5 2h-6l-1-87zm17 9-10 4-3 3v34l9 6h9l5-3 4-5 2-13-1-15-4-8-6-3z" fill="#707175"/>
<path transform="translate(686,561)" d="m0 0 4 1v7l9-6 5-2h7l8 3 7 7 4 10 1 4v16l-4 12-6 8-7 4-4 1h-7l-9-4-3-2v28l-6 2-5 1-1-88zm17 9-8 3-4 4v34l6 5 3 1h9l5-3 4-6 1-4v-21l-3-8-4-4z" fill="#747578"/>
<path transform="translate(2035,534)" d="m0 0 11 1v87h2v3h-10l-2-4-5 2-9 3-9-1-8-4-6-7-4-12v-17l4-10 7-8 8-5h11l6 3 4 3zm-18 36-6 4-3 5-1 4v23l4 8 6 3h9l7-4 2-3v-35l-8-5z" fill="#6E6F73"/>
<path transform="translate(147,561)" d="m0 0 3 1v7l9-6 6-2h7l8 3 8 10 3 9v19l-4 11-6 8-10 5h-7l-9-4-4-2v28l-5 2-6 1v-88zm16 9-8 3-4 4v34l5 4 4 2h10l6-4 3-7 1-6v-13l-2-10-5-6z" fill="#6F7074"/>
<path transform="translate(19,539)" d="m0 0h46l-1 8-1 1-32 1v26h26l1 1v9h-28v30h36l1 1v8l-1 1h-47z" fill="#6F7074"/>
<path transform="translate(465,561)" d="m0 0h11l7 3 7 6 4 9 1 4v12l-17 1h-20v9l4 8 7 4h12l7-4 4 2 1 4-8 5-7 2h-11l-10-4-7-7-4-9-1-5v-16l3-10 7-9zm1 8-5 3-4 9v7h27l-1-11-4-6-3-2z" fill="#707175"/>
<path transform="translate(226,561)" d="m0 0h12l8 4 7 8 3 9v13l-13 1h-24v8l3 7 4 4 4 2h12l6-3h4l2 5-8 5-7 2h-11l-10-4-8-9-3-8-1-5v-14l2-9 6-9 9-6zm1 8-4 2-4 7-1 10h27v-8l-3-7-5-4z" fill="#707175"/>
<path transform="translate(1846,561)" d="m0 0h11l7 3 7 6 4 9 1 4v12l-19 1h-18v9l4 8 7 4h12l7-4 3 1 2 5-6 4-9 3h-11l-10-4-7-7-4-9-1-5v-17l4-11 6-7zm0 8-5 5-3 7v7h27v-8l-4-8-4-3z" fill="#707175"/>
<path transform="translate(1660,561)" d="m0 0h11l10 5 6 8 3 12v9l-2 1h-37l3 13 6 7 3 1h11l9-4 3 1 1 5-8 5-7 2h-10l-10-4-5-4-5-8-2-6-1-13 2-12 4-8 9-8zm-1 8-5 4-2 6-1 9h28l-1-10-3-6-4-3z" fill="#717276"/>
<path transform="translate(1952,561)" d="m0 0h11l10 5 6 8 2 8v14h-37v9l3 7 5 4 3 1h11l9-4h2l2 3-1 4-10 5-4 1h-10l-9-3-7-6-6-12-1-5v-15l4-11 9-10zm-1 8-5 4-2 4-1 11h27v-8l-4-8-3-3z" fill="#6F7074"/>
<path transform="translate(831,561)" d="m0 0h12l8 4 7 8 3 9v13l-7 1h-30l1 12 4 6 6 3h12l9-4 3 4-1 3-10 5-4 1h-11l-9-4-5-5-5-8-2-5-1-6v-10l3-12 6-9 8-5zm0 8-5 5-2 4v10h26v-8l-4-8-4-3z" fill="#6F7074"/>
<path transform="translate(1e3 511)" d="m0 0h8l1 1v148l-1 1h-8l-1-1v-148z" fill="#0E7E42"/>
<path transform="translate(1392,561)" d="m0 0h11l10 5 5 6 3 12v11l-18 1h-19v8l3 8 5 4 3 1h11l7-3 4-1 2 3v3l-8 5-7 2h-10l-10-4-5-5-4-5-4-13v-13l4-12 8-9zm-1 8-5 4-3 10v5h27v-7l-3-8-5-4z" fill="#6F7074"/>
<path transform="translate(1169,561)" d="m0 0h2l2 8 5-2 8-5 9-1 7 3 5 5 2 5v50l-1 1h-9l-1-1-1-50-3-3h-9l-8 4-3 4-1 45-1 1h-9l-1-54-1-7z" fill="#6D6E72"/>
<path transform="translate(1815,105)" d="m0 0 12 1 9 4 7 6 4 7 2 9-1 13-5 10-9 8-8 3h-16l-8-3-10-9-4-9-1-5v-8l2-8 4-7 4-5 12-6zm-1 7-9 4-7 8-2 6v11l4 10 7 6 4 2h14l8-5 4-5 3-8v-10l-3-9-7-7-8-3z" fill="#0F7F42"/>
<path transform="translate(85,562)" d="m0 0h3l8 14 3 5 3 1 1-5 8-14h12l-6 11-10 15 1 4 20 30-1 2h-11l-7-10-8-14h-2l-1 2h-2l-2 5-9 15-2 2h-12l7-11 15-22-1-4-15-23v-2z" fill="#717276"/>
<path transform="translate(1245,560)" d="m0 0h9l13 4 1 3-2 4-7-1-4-1h-10l-5 3-1 8 1 4 11 3 10 3 8 6 2 3 1 9-3 9-7 6-7 3h-15l-12-4-3-3 3-6 11 4 5 1h7l7-2 1-4v-9l-3-3-17-4-8-5-4-8v-7l4-8 6-5z" fill="#717276"/>
<path transform="translate(404,560)" d="m0 0h10l10 3 3 2-1 5-2 2-9-3h-10l-4 2-1 2v10l7 3 12 3 8 5 4 7v10l-4 7-7 6-6 2h-14l-14-5-1-2 3-6 11 4 12 1 7-2 1-3v-12l-10-3-12-3-6-4-4-8v-8l4-8 5-4z" fill="#6F7074"/>
<path transform="translate(1495,560)" d="m0 0h10l10 3 3 2-2 6-2 1-8-3h-10l-5 3-1 9 4 4 18 5 6 4 4 7v9l-4 8-6 5-7 3h-14l-12-4-3-3 3-6 11 4 5 1h7l6-3 2-3v-8l-4-4-16-4-7-4-4-5-1-3v-9l3-6 8-7z" fill="#6F7074"/>
<path transform="translate(1773,561)" d="m0 0 2 2 14 43v4h3l1-7 12-36 2-4h10l-1 5-13 36-7 20-1 1h-10l-7-19-13-38-1-5z" fill="#707175"/>
<path transform="translate(327,544)" d="m0 0h2l-1 19h15l-3 7h-12l1 45 3 3h10l1 6-5 2h-11l-5-3-4-5-1-4v-44h-7v-7h7v-9l1-7z" fill="#6D6E72"/>
<path transform="translate(1714,534)" d="m0 0h3l1 7 1 76 4 1 2 7-9 1-5-3-3-3-1-3-1-81z" fill="#6D6E72"/>
<path transform="translate(756,534)" d="m0 0h3l1 12 1 71 5 3 1 5-9 1-5-3-4-5-1-82z" fill="#6D6E72"/>
<path transform="translate(1445,561)" d="m0 0h2l2 9 10-8 9-1-1 8-1 2-11 3-4 5-1 2-1 44h-10l-1-1v-52l-1-8z" fill="#77787C"/>
<path transform="translate(1900,561)" d="m0 0 2 2 1 7 5-3 6-5 3-1h7l-3 10-12 3-4 5-1 45-1 1h-9l-1-1-1-54-1-6z" fill="#6D6E72"/>
<path transform="translate(280,561)" d="m0 0 2 2 1 8h3l2-4 6-5 3-1h7l-3 10-10 2-5 5-1 2-1 44-1 1h-9l-1-1-1-61z" fill="#6D6E72"/>
<path transform="translate(1744,562)" d="m0 0h7v62l-1 1h-10l-1-2v-59z" fill="#848588"/>
<path transform="translate(786,562)" d="m0 0h7v63h-11v-62z" fill="#6D6E72"/>
<path transform="translate(362,562)" d="m0 0h6v62l-1 1h-9l-1-2v-60z" fill="#797A7E"/>
<path transform="translate(1807,119)" d="m0 0h16l6 3 3 4-1 8-3 3h-3l3 7 3 5v3h-7l-7-12v-2h-4v14h-7v-32zm6 6v8h9l3-5-2-3z" fill="#0E7E42"/>
<path transform="translate(361,535)" d="m0 0 6 1 4 5-1 6-5 4-6-1-4-5 1-6z" fill="#7A7B7E"/>
<path transform="translate(785,535)" d="m0 0h5l5 5v6l-6 5-6-1-3-4v-6z" fill="#75767A"/>
<path transform="translate(1743,535)" d="m0 0h5l5 5v6l-6 5-5-1-4-4-1-4z" fill="#737478"/>
</svg>
