<?xml version="1.0" encoding="UTF-8"?>
<svg version="1.1" viewBox="0 0 2048 682" width="1800" height="600" xmlns="http://www.w3.org/2000/svg">
<path transform="translate(750,193)" d="m0 0h106l4 8 40 99 22 54 6 15v2h2l1-5 19-45 17-40 19-45 18-42 1-1h100l1 1v291l-1 1h-80l-1-1-1-188-23 53-18 42-22 51-19 44-1 1h-51l-16-39-15-36-34-82-14-34-1 188-1 1h-58z" fill="#009A98"/>
<path transform="translate(1437,193)" d="m0 0h95l13 23 16 30 13 23 16 30 13 23 16 30 13 23 1-182h58l1 2v290l-1 1h-92l-13-23-13-24-13-23-14-26-13-23-13-24-10-18-14-25v185l-1 1h-58z" fill="#009A98"/>
<path transform="translate(1173,193)" d="m0 0h213v54l-128 1-1 64h112l1 2v46l-1 1h-112v68h131l1 1v55l-1 1h-215z" fill="#009A98"/>
<path transform="translate(486,193)" d="m0 0h213v54h-129v65h112v49h-112v68h132v57h-216z" fill="#009A98"/>
<path transform="translate(1849,188)" d="m0 0h36l35 4 31 6 1 1v56l-11-3-19-6-25-5-7-1h-31l-14 4-9 6-5 6-2 10 3 7 5 5 9 6 74 36 16 10 11 9 10 10 9 14 5 11 4 18v13l-4 19-7 16-8 11-7 8-13 10-16 9-16 6-22 5-27 3h-15l-31-2-24-3-29-6-3-1v-59l10 2 30 8 25 4 10 1h26l16-3 12-6 5-6 2-5v-13l-6-9-10-6-27-12-38-16-20-11-14-11-9-9-7-10-6-12-4-13-1-6v-25l4-16 7-14 11-13 12-10 14-8 14-6 19-5z" fill="#009A98"/>
<path transform="translate(168,188)" d="m0 0h36l27 3 30 5 9 2v57l-10-3-24-7-20-4-8-1h-30l-12 3-11 6-5 6-2 5v8l4 7 7 6 16 8 41 20 19 9 15 9 12 9 11 10 9 12 7 15 3 11 1 9v11l-2 14-5 15-6 11-8 10-9 9-15 10-17 8-16 5-21 4-20 2h-15l-32-2-23-3-29-6-4-1v-59l7 1 25 7 25 5 19 2h26l16-3 10-5 5-5 3-5 1-4v-9l-4-8-8-7-22-10-40-17-21-10-17-12-14-14-7-11-6-13-3-12-1-7v-17l3-15 5-12 6-10 9-10 9-8 11-7 14-7 20-6 16-3z" fill="#009A98"/>
<path transform="translate(332,193)" d="m0 0h87v292l-1 1h-86z" fill="#009A98"/>
</svg>
