<?xml version="1.0" encoding="UTF-8"?>
<svg version="1.1" viewBox="0 0 2048 520" width="2542" height="646" xmlns="http://www.w3.org/2000/svg">
<path transform="translate(584,75)" d="m0 0h199l12 3 14 7 10 8 9 8 11 14 8 14 5 14 1 4v179h-75v-15h-2l-2 4-9 7-10 4h-217l-10-4-9-6-6-8-3-7-1-6v-90l4-13 6-9 7-7 10-5 4-1h208l10 3 11 7 8 8v-22l-2-9-6-9-8-7-10-4-166-1-1-1zm10 156-6 4-5 8-1 5 2 8 5 6 7 3h153l10-6 4-7v-8l-4-6-9-6-3-1z" fill="#BE0811"/>
<path transform="translate(1302,75)" d="m0 0h207l12 3 16 7 11 7 12 11 9 12 6 12 4 14 1 7v111l-4 16-8 15-9 11-7 7-10 7-11 6-9 4-4 1h-213l-16-4-14-7-10-8-11-11-7-11-6-12-4-13-1-7v-107l3-15 8-16 7-10 9-10 13-10 14-7zm40 60-13 3-11 7-6 10-2 9v66l2 11 4 8 8 7 9 4 15 2h121l16-2 12-6 6-7 4-10 1-9v-59l-2-12-5-10-7-6-9-4-10-2z" fill="#BE0811"/>
<path transform="translate(1674,69)" d="m0 0h15l14 2 14 5 13 9 8 7 9 11 9 10 9 11 13 15 9 11 13 15 11 13 12 14 9 11 13 15 11 13 12 14 5 4 4 1h8l4-4 1-171h73v203l-4 14-7 14-11 12-10 8-11 5-13 3h-26l-15-3-8-4-11-9-7-8-11-13-8-10-11-13-9-11-11-13-11-14-13-15-9-11-11-13-8-10-11-13-18-22-4-5-5-2h-8l-5 2-1 4-1 175h-71v-206l4-12 7-12 11-12 12-8 14-5z" fill="#BE0811"/>
<path transform="translate(1,75)" d="m0 0h82l16 29 75 135 9 15 2 1h11l2-4 12-22 13-23 14-25 15-27 12-21 16-29 13-23 4-6h83l-8 16-112 203-8 11-9 10-13 9-11 5-10 3-7 1h-24l-14-3-12-5-12-7-12-11-10-14-18-34-13-23-12-23-10-18-14-26-12-22-26-48-12-22z" fill="#BE0811"/>
<path transform="translate(1095,76)" d="m0 0h151l-3 3-32 17-43 24-74 41-29 16-23 13-8 5-1 2v9l8 6 29 16 77 43 23 13 27 15 25 14 24 13v1h-152l-45-25-24-13-23-13-12-7-13-10-8-9-9-16-4-14-1-7v-23l3-14 5-12 7-12 11-12 12-9 23-12 23-13 23-12 22-12z" fill="#BE0811"/>
<path transform="translate(403,75)" d="m0 0h73v251h-73z" fill="#BE0811"/>
<path transform="translate(875,76)" d="m0 0h71l1 1v249l-1 1h-71z" fill="#BE0811"/>
<path transform="translate(405)" d="m0 0h69v3l-15 28-8 13-5 4-3 1h-7l-6-3-5-6-13-24-8-15z" fill="#BE0811"/>
<path transform="translate(1192,453)" d="m0 0h6l1 4 7-4h11l7 4 1 2 4-2 6-4h12l6 3 4 5 1 3v40h-6l-1-1-1-37-2-4-4-2h-8l-5 3-2 6-1 35h-7l-1-38-4-5-2-1h-8l-5 3-2 5-1 36h-7v-50z" fill="#5C5B5E"/>
<path transform="translate(1849,452)" d="m0 0 9 1 6 5 1-5h7v52l-4 9-8 5h-14l-6-3-4-5-1-5h7l4 5 2 1h10l5-4 1-4v-8l-6 4-10 1-8-4-4-5-2-8v-15l3-10 6-5zm-1 7-5 4-2 8v11l3 9 4 3h9l6-5 2-6v-13l-3-8-4-3z" fill="#5F5E61"/>
<path transform="translate(2012,79)" d="m0 0h13l8 3 10 9 4 9 1 10-2 9-6 9-6 5-10 4h-11l-10-4-8-7-5-10-1-5v-7l4-11 7-8 8-5zm3 7-10 4-6 7-2 5v12l6 10 8 5 10 1 9-3 7-7 3-7v-10l-4-9-8-6-6-2z" fill="#605F62"/>
<path transform="translate(1934,453)" d="m0 0h14l8 5 3 6v40h-7l-1-4-6 4h-13l-6-3-4-5v-12l4-6 7-3h19l-2-12-4-3-6-1-7 2-4 7h-5l-1-5 4-6 4-3zm2 27-6 3-1 2v9l4 4 9 1 7-3 3-5v-11z" fill="#5F5E61"/>
<path transform="translate(1633,453)" d="m0 0h13l6 3 5 6 2 9v9h-32l2 11 4 5 3 1h8l5-3 3-6h6v6l-4 6-7 4h-14l-8-5-4-7-1-5v-17l3-10 7-6zm3 6-5 3-3 4-1 8 1 1h23l1-1-1-9-5-5-3-1z" fill="#605F61"/>
<path transform="translate(1144,453)" d="m0 0h14l6 3 4 5 1 2v41h-6l-2-3-6 3h-13l-7-4-3-6v-9l3-5 5-4 4-1h18l-1-11-5-4-6-1-7 2-3 7h-6l-1-3 3-7 5-4zm2 27-5 3-2 2v8l5 5 8 1 7-3 3-4v-12z" fill="#636264"/>
<path transform="translate(1749,453)" d="m0 0h13l6 3 5 6 2 7v11l-31 1 1 10 4 5 3 1h9l4-2 3-7h6v6l-4 6-4 3-3 1h-14l-8-5-4-8-1-6v-13l2-9 4-6zm3 6-5 3-3 4-1 8 1 1h24v-7l-3-6-5-3z" fill="#5D5D5F"/>
<path transform="translate(1291,453)" d="m0 0h14l8 5 4 8v25l-4 8-8 5h-14l-8-5-4-8v-25l4-8zm3 6-5 3-3 5v23l3 5 5 3h8l5-3 3-5v-23l-4-6-4-2z" fill="#5C5B5E"/>
<path transform="translate(1488,453)" d="m0 0h13l6 3 5 6 2 8v17l-3 10-7 6-3 1h-13l-8-4-4-7-1-4v-21l3-8 5-5zm3 6-6 3-3 6v21l3 6 5 3h9l5-3 3-8v-17l-3-8-6-3z" fill="#5E5D60"/>
<path transform="translate(1037,453)" d="m0 0h14l6 3 5 6 1 3v27l-3 6-6 5-3 1h-13l-8-4-4-6-1-4v-23l3-7 5-5zm3 6-6 4-2 5v21l3 6 5 3h9l6-5 2-8v-13l-2-8-4-4-3-1z" fill="#5F5E61"/>
<path transform="translate(1534,453)" d="m0 0h6l2 4 7-4h11l6 3 4 6 1 3v39h-7l-1-37-3-5-4-2h-7l-5 3-2 4-1 37h-7z" fill="#5C5B5E"/>
<path transform="translate(1679,453)" d="m0 0h6l2 4 7-4h11l6 3 4 6 1 3v39h-6l-1-1-1-36-3-5-4-2h-7l-5 3-2 4-1 37h-7z" fill="#5C5B5E"/>
<path transform="translate(1346,453)" d="m0 0h15l8 5 2 3v6h-6l-2-6-7-2-9 1-4 5 1 6 7 3 13 3 6 4 2 4v9l-4 6-8 4h-14l-6-3-4-5-1-7h6l3 6 4 2h11l4-2 1-2v-7l-4-3-15-3-7-4-2-4v-10l3-5z" fill="#616063"/>
<path transform="translate(909,453)" d="m0 0h6l1 5 5-4 2-1h12l6 4 4 6v41h-6l-1-35-3-7-4-2h-7l-5 2-3 7-1 35h-6l-1-1v-49z" fill="#666568"/>
<path transform="translate(968,453)" d="m0 0h6l1 5 5-4 2-1h12l6 4 4 6 1 5v35l-1 1h-6l-1-34-2-7-5-3h-7l-5 3-3 7-1 34h-6z" fill="#5C5B5E"/>
<path transform="translate(1431,453)" d="m0 0h14l8 5 3 6v6h-6l-3-7-5-3h-8l-6 3-2 5v21l3 6 4 2h9l5-3 3-7h6v6l-4 7-8 4h-13l-8-4-4-6-1-4v-23l3-7 5-5z" fill="#5F5E61"/>
<path transform="translate(1078,453)" d="m0 0h7l4 10 9 28 4-10 9-27 1-1h6l-1 7-15 43-1 1h-6l-13-37-4-12z" fill="#5F5E61"/>
<path transform="translate(2e3 92)" d="m0 0h21l4 4 1 2v6l-3 5 2 2 1 11 1 2h-8l-1-2-1-9-9-1-1 12h-7zm7 6v8h10l2-2v-5l-1-1z" fill="#605F62"/>
<path transform="translate(878,435)" d="m0 0h7v69h-7z" fill="#5B5A5D"/>
<path transform="translate(1796,453)" d="m0 0h6l1 5 4-4 3-1h9v7h-8l-5 3-3 5-1 36h-7v-50z" fill="#5D5C5F"/>
<path transform="translate(1895,453)" d="m0 0h6l1 1v49l-1 1h-6z" fill="#717073"/>
<path transform="translate(1903,435)" d="m0 0h8l-6 8-4 4h-7l4-6z" fill="#626164"/>
</svg>
