<?xml version="1.0" encoding="UTF-8"?>
<svg version="1.1" viewBox="0 0 2048 682" width="330" height="110" xmlns="http://www.w3.org/2000/svg">
<path transform="translate(192,123)" d="m0 0h61l3 9 19 81 10 42 7 31v3l3-2 16-64 21-83 5-16 1-1h52l3 10 16 63 11 43 7 29 4 19 3 2 4-16 9-40 20-84 6-24 2-2h60l-1 8-12 50-13 55-29 122-3 13-3 3h-70l-4-8-12-41-13-46-10-37-2-2-7 24-23 82-7 23-2 4-2 1h-70l-3-7-22-92-19-80-16-68z"/>
<path transform="translate(1701,118)" d="m0 0h40l20 3 16 5 17 9 12 9 9 8 13 17 9 16 2 6-17 3-40 6h-5l-8-12-4-5-10-7-12-5-10-2h-26l-15 4-11 7-9 10-8 16-3 13-2 19v24l3 21 5 15 6 10 5 6 8 6 8 4 11 3 6 1h23l23-4 15-5 4-2 1-2 2-34-59 1-2-2v-14l1-33h122v108l-7 6-14 9-23 11-19 6-25 5-17 2h-30l-25-4-21-7-19-10-10-8-7-6-9-11-7-11-7-14-6-18-4-22-1-15v-15l3-24 5-19 7-16 7-12 7-9 9-10 12-10 14-8 11-5 16-5z"/>
<path transform="translate(1128,118)" d="m0 0h37l21 3 16 5 9 4 14 8 13 10 7 7 11 15 8 15 6 17 4 17 2 16v26l-2 17-5 21-6 15-8 15-11 14-9 9-16 11-17 8-17 5-17 3-9 1h-27l-19-3-15-4-19-8-14-9-12-11-9-10-11-18-6-14-5-17-3-21v-33l3-20 5-18 11-23 9-12 11-12 10-8 13-8 11-5 16-5zm7 50-12 3-11 6-10 9-8 13-5 16-3 23v22l3 22 5 16 6 10 8 9 13 8 15 4 7 1h10l18-4 12-6 10-9 7-11 5-14 3-19 1-12-1-27-3-17-5-13-7-12-7-7-10-6-13-4-5-1z"/>
<path transform="translate(654,118)" d="m0 0h38l20 3 16 5 11 5 11 6 14 11 7 7 10 13 10 19 6 18 3 14 2 16v27l-4 27-7 21-8 16-8 11-9 10-10 9-13 8-15 7-17 5-17 3-9 1h-26l-20-3-15-4-17-7-13-8-13-11-10-11-9-14-8-17-6-21-3-20v-30l4-26 7-21 9-17 12-16 9-9 13-9 14-8 17-6 15-3zm7 50-12 3-11 6-10 9-8 14-5 15-3 20v28l3 19 6 18 7 11 7 7 11 6 11 4 12 2h10l15-3 12-5 8-6 8-9 7-14 4-16 2-18v-14l-1-19-4-19-6-14-7-9-9-8-11-5-13-3z"/>
<path transform="translate(1312,123)" d="m0 0h71l4 4 12 18 14 20 17 25 14 20 13 19 22 32 16 23 11 16 16 23 17 25 12 17 5 7v2h-71l-7-9-12-18-13-19-17-25-13-19-17-25-16-23-9-14-6-5 1 2 1 12v142l-1 1h-64l-1-2v-248z"/>
<path transform="translate(837,123)" d="m0 0h66l1 1v200h110v49l-2 1h-174l-1-1z"/>
<path transform="translate(1437,123)" d="m0 0h118l1 1v141l1 25-4-1-8-10-10-16-11-15-13-19-12-17-28-40-11-16-12-17-10-13z" fill="#C9091F"/>
<path transform="translate(1597,459)" d="m0 0 6 1 9 6-1 7-2 8 11-2h8l1 1v6l-5 2-16 2-6 21-1 5v11l6-1 10-9 8-7 4-4 7-2 3-9 5-18 3-1 6 3 9 6-3 11-5 19v10l4 1 7-7 9-13 6-15 3-12 1-2 7 1 9 5-1 11-6 24v8l7-1 11-9 5-5 7-6 5-5 5-21 1-1 7 1 7 5 6-1 6-6 6-1 6 4 6 5 2 4v5l-8 9-8 4h-6v-4l5-10v-3l-4 1-7 10-8 15-4 14-2 8-5 1-8-6-3-3 2-13-8 6-7 8-8 6-2 1h-10l-6-4-6-12-4 2-9 10-6 4h-6l-9-6-5-7-2-11h-2l-20 20-6 4-7 1-7-3-7-6-4-7-1-11-16 17-10 8-2 1h-11l-7-7-5-9h-2l-9 11-5 4h-9l-9-6-6-10v-14l7-29 1-2 6 1 10 6 1 4-8 32v7l7-2 9-10 8-15 5-15 2-7 4-1 6 4 7 5-2 10-6 23v8h6l10-9 12-11 6-2 1 2 3-5 1-9-5-5-4-5 1-4 12-1 5-17z" fill="#C9091F"/>
<path transform="translate(954,477)" d="m0 0h7l5 3 3 6-1 7-9 9-17 10-10 3h-3l2 12 7 1 9-4 13-11 5-6 5-4 3 1v6l-6 9-10 10-11 7-9 3-6-1-6-4-8-9-5-10-1-7-7 1-8-2-2 8-7 11-10 10-4 2h-10l-5-3-6-9-5 1-7 8-4 3h-7l-6-4-7-8-3-6-1-5 2-13 5-23 1-1 7 1 9 5 1 2-1 10-6 20-1 11 7-2 7-9 8-36 2-2h6l9 5 1 2v8l-6 22v12h7l8-7 5-9v-6l-4-6-4-5v-7l3-7 6-2 7 3 3 4 2 7 1 8 15 1 7-10 6-7 10-6h7l6 4 4-1zm-8 13-11 6-3 4 1 4 6-1 6-4 4-5-1-4z" fill="#C9091F"/>
<path transform="translate(1241,476)" d="m0 0 7 2 5 4 5 3-2 9-6 22-1 7 1 2 7-1 10-13 7-14 4-14 2-6 8 1 8 5v7l-7 30v6l8-1 15-14 6-5 5-4 4-13 2-9 1-2h6l8 6 6-1 6-6h8l8 6 4 6v6l-10 9-6 3h-6l1-6 5-9v-2l-5 1-10 15-6 14-5 18-4 1-12-8 1-14-5 4-7 8-8 7-4 2h-10l-6-5-6-11-4 2-7 8-6 5-7 1-7-4-8-9-2-5v-10l7-31z" fill="#C9091F"/>
<path transform="translate(673,432)" d="m0 0h9l16 3 12 4 12 7 9 9 3 5v9l-6 10-10 9-15 7-12 3-13 1-4 15-5 22-2 3-5-1-9-6-1-5 14-59 6-21-18 4-5-2-5-4-2-5 5-3 18-4zm16 14-1 1-2 13-6 25v5l9-2 13-7 10-8 7-10 1-5-7-6-10-4-9-2z" fill="#C9091F"/>
<path transform="translate(1088,474)" d="m0 0 7 1 10 6 1 7-6 31v8l9-2 7-11 4-14 3-19 2-4 9 2 8 4 1 5-9 50 8-5 10-8 6-3 1 5-7 8-12 9-7 4-4 11-6 11-5 5-2 1h-17l-6-3-2-5 1-9 7-8 9-5 6-2 4-13v-5l-5 4-4 6-7 2-10-4-8-8-3-9 2-17 4-25zm21 81-5 5-2 4v5l1 1h6l3-5 1-9z" fill="#C9091F"/>
<path transform="translate(1487,449)" d="m0 0 7 1 4 5-2 9-7 10-5-1-1-2v-8l-7 3-5 8-2 5v4h19l1 1v6l-2 3-4 1-16 1-3 12-10 49-2 6-5-1-10-8 1-10 9-48-10-1-6-3-3-4v-5l1-1h8l12 1 6-15 7-10 6-4 8 1 4 3 4 2 2-9z" fill="#C9091F"/>
<path transform="translate(778,477)" d="m0 0 6 1 5 5 3 6 2 9v4l2-1h11l2 2-1 4-3 2h-8l-3-1-3 9-6 9-8 8-8 4-10 1-8-4-8-9-5-11v-13l7-13 9-9 4-2h8l4 3 5 1zm-9 16-6 3-7 11-2 6v7l3 7 2 1h6l8-5 8-9 1-2v-7l-6-8-5-4z" fill="#C9091F"/>
<path transform="translate(1181,477)" d="m0 0 5 2 1 3h9l2-4 7 1 5 5 4 15v3l3-1h9l4 3-2 4-8 1-6-2-1 6-6 11-6 7-10 6-6 2-9-1-8-7-8-10-3-10 1-9 6-12 10-10zm5 17-5 5-7 11v11l4 6 1 1h6l9-6 6-7 2-4v-6l-4-6-6-5z" fill="#C9091F"/>
<path transform="translate(1826,476)" d="m0 0 9 3 4 6v7l-6 7-14 9-20 10 2 7 3 2h8l11-7 8-8 4-5 6-4 2 2-1 7-6 8-9 9-10 7-5 2h-10l-9-6-7-9-4-11 1-9 6-12 8-8 8-5h7l6 4 3 1 3-6zm-9 13-11 7-4 5v4l10-3 5-4 2-8z" fill="#C9091F"/>
<path transform="translate(1016,477)" d="m0 0h7l6 4 6 7v7l-5 5-8 6-8 1-1-2 7-14v-1h-5l-7 10-9 17-3 9-2 11-4 2-10-6-3-3 1-8 8-32 2-10 2-2 7 1 8 6 6-3z" fill="#C9091F"/>
</svg>
